<svg width="1024" height="691" viewBox="0 0 1024 691" fill="none" xmlns="http://www.w3.org/2000/svg">
<g clip-path="url(#clip0_1_5)">
<path d="M881.186 397.165C845.482 397.333 814.452 405.075 788.469 416.519C778.935 399.521 769.402 384.375 767.72 373.268C765.85 360.31 763.607 352.4 765.85 336.917C768.093 321.434 778.188 299.388 778.001 297.706C777.814 296.023 775.758 288.113 755.195 287.945C734.633 287.776 716.875 291.479 714.819 296.359C712.762 301.24 708.837 312.347 706.22 323.791C702.668 340.62 665.095 400.699 643.598 432.169C636.682 419.884 630.7 409.114 629.392 400.531C627.522 387.573 625.279 379.663 627.522 364.18C629.766 348.697 639.86 326.651 639.673 324.969C639.486 323.286 637.43 315.376 616.867 315.208C596.305 315.039 578.547 318.742 576.491 323.622C574.434 328.503 572.191 339.946 567.892 351.054C563.593 362.161 513.682 462.462 500.597 488.378C493.868 501.673 488.073 512.276 483.961 519.512C483.961 519.512 483.774 520.017 483.213 520.858C479.661 527.085 477.605 530.451 477.605 530.451C477.605 530.451 477.605 530.451 477.605 530.619C474.801 535.163 471.81 539.37 470.315 539.37C469.193 539.37 467.137 527.253 470.689 510.761C478.166 475.925 495.924 421.736 495.737 419.884C495.737 418.875 499.102 409.45 484.147 404.57C469.567 399.689 464.333 407.767 463.024 407.767C461.716 407.767 460.781 410.628 460.781 410.628C460.781 410.628 477.044 349.707 429.751 349.707C400.216 349.707 359.465 378.821 339.277 405.075C326.566 411.301 299.461 424.596 270.487 438.901C259.458 444.455 248.055 450.008 237.401 455.225C236.653 454.552 235.905 453.711 235.157 453.037C177.957 398.007 72.1548 359.132 76.6411 285.252C78.3235 258.326 88.6046 187.644 279.834 101.816C437.228 31.9751 562.471 51.3285 584.155 94.2426C615.185 155.5 517.047 269.264 354.418 285.757C292.358 291.984 259.832 270.443 251.607 262.365C243.008 253.95 241.7 253.445 238.522 255.128C233.288 257.652 236.653 265.226 238.522 269.601C243.382 281.045 263.384 301.24 297.218 311.169C327.127 319.92 399.842 324.8 487.886 294.171C586.398 259.84 663.413 164.42 640.794 84.4817C618.176 3.36579 468.632 -23.3924 327.127 21.8777C243.008 48.8042 151.787 91.2133 86.1745 146.413C8.22489 212.046 -4.11245 269.096 0.934648 292.993C19.0668 377.812 148.983 433.011 200.949 473.905C198.332 475.252 195.902 476.43 193.846 477.44C167.863 489.052 68.7901 535.668 44.1154 584.977C16.0759 640.849 48.6017 680.903 70.0986 686.288C136.832 702.949 205.436 672.993 242.261 623.516C279.086 574.038 274.599 509.751 257.589 480.3C257.402 479.964 257.215 479.627 256.841 479.291C263.571 475.757 270.487 472.054 277.216 468.52C290.488 461.452 303.574 454.889 314.789 449.503C308.434 465.154 303.76 483.835 301.517 510.761C298.713 542.4 313.107 583.462 331.987 599.618C340.399 606.686 350.306 606.855 356.662 606.855C378.719 606.855 388.627 590.362 399.655 570.841C413.114 546.943 425.265 519.176 425.265 519.176C425.265 519.176 410.123 594.233 451.248 594.233C466.202 594.233 481.344 576.731 488.073 567.811C488.073 567.98 488.073 567.98 488.073 567.98C488.073 567.98 488.447 567.475 489.195 566.297C490.69 564.109 491.625 562.763 491.625 562.763C491.625 562.763 491.625 562.594 491.625 562.426C497.606 553.002 511.065 531.629 531.067 496.12C556.863 450.345 581.725 393.126 581.725 393.126C581.725 393.126 583.968 407.094 591.632 430.318C596.118 443.95 605.465 458.928 612.942 473.401C606.96 480.974 603.222 485.181 603.222 485.181C603.222 485.181 603.222 485.181 603.409 485.349C598.548 491.071 593.314 497.298 587.52 503.356C567.144 525.234 542.843 550.309 539.479 557.546C535.553 566.129 536.488 572.355 543.965 577.404C549.386 581.106 559.106 581.611 569.013 581.106C587.333 579.928 600.231 575.889 606.586 573.365C616.494 570.168 628.083 565.287 638.925 558.051C658.927 544.756 671.077 525.739 669.955 500.664C669.395 486.864 664.348 473.064 658.179 460.106C660.048 457.75 661.731 455.394 663.6 453.037C695.191 411.47 719.679 365.863 719.679 365.863C719.679 365.863 721.922 379.831 729.586 403.055C733.325 414.836 740.989 427.626 747.718 440.079C717.996 461.789 699.677 487.032 693.135 503.525C681.358 534.153 690.518 547.953 707.902 551.151C715.753 552.665 726.969 549.3 735.194 546.102C745.662 543.073 757.999 537.856 769.776 530.114C789.777 516.819 809.031 498.308 807.909 473.232C807.349 461.789 803.984 450.513 799.311 439.574C824.546 430.15 857.072 424.933 898.57 429.309C987.549 438.733 1005.12 488.715 1001.76 509.751C998.391 530.788 979.698 542.231 973.529 545.765C967.36 549.3 965.304 550.478 965.865 553.002C966.613 556.704 969.604 556.536 974.838 555.863C982.128 554.685 1021.57 538.866 1023.25 500.159C1026.06 450.681 973.716 396.66 881.186 397.165ZM194.781 605.508C165.246 634.454 124.121 645.393 106.363 636.137C87.2961 626.208 94.7733 583.462 131.038 552.834C153.095 534.153 181.509 516.819 200.388 506.217C204.688 503.861 211.043 500.495 218.708 496.288C220.016 495.615 220.764 495.278 220.764 495.278C222.259 494.437 223.755 493.595 225.25 492.754C238.522 536.509 225.811 575.048 194.781 605.508ZM409.75 473.905C399.468 496.456 377.972 554.18 364.886 550.982C353.671 548.29 346.754 504.534 362.643 461.284C370.681 439.574 387.692 413.658 397.599 403.56C413.675 387.404 431.433 382.019 435.733 388.582C441.154 397.165 416.105 459.769 409.75 473.905ZM587.146 550.309C582.846 552.329 578.734 553.675 576.865 552.665C575.556 551.992 578.734 549.3 578.734 549.3C578.734 549.3 600.978 527.758 609.764 517.998C614.811 512.276 620.793 505.544 627.149 497.971C627.149 498.644 627.149 499.486 627.149 500.159C627.149 525.907 599.483 543.241 587.146 550.309ZM723.978 522.205C720.8 520.185 721.361 513.454 732.016 492.417C736.129 484.171 745.849 470.371 762.486 457.076C764.355 462.462 765.663 467.679 765.476 472.559C765.29 505.039 739.493 517.156 723.978 522.205Z" fill="#CD6799"/>
</g>
<defs>
<clipPath id="clip0_1_5">
<rect width="1024" height="691" fill="white"/>
</clipPath>
</defs>
</svg>
